<?xml version="1.0" encoding="UTF-8" standalone="no"?>
<svg
   xmlns:dc="http://purl.org/dc/elements/1.1/"
   xmlns:cc="http://creativecommons.org/ns#"
   xmlns:rdf="http://www.w3.org/1999/02/22-rdf-syntax-ns#"
   xmlns:svg="http://www.w3.org/2000/svg"
   xmlns="http://www.w3.org/2000/svg"
   xmlns:sodipodi="http://sodipodi.sourceforge.net/DTD/sodipodi-0.dtd"
   xmlns:inkscape="http://www.inkscape.org/namespaces/inkscape"
   version="1.1"
   width="24"
   height="24"
   viewBox="0 0 24 24"
   id="svg4"
   sodipodi:docname="account-group.svg"
   inkscape:version="0.92.5 (2060ec1f9f, 2020-04-08)">
  <metadata
     id="metadata10">
    <rdf:RDF>
      <cc:Work
         rdf:about="">
        <dc:format>image/svg+xml</dc:format>
        <dc:type
           rdf:resource="http://purl.org/dc/dcmitype/StillImage" />
      </cc:Work>
    </rdf:RDF>
  </metadata>
  <defs
     id="defs8" />
  <sodipodi:namedview
     pagecolor="#ffffff"
     bordercolor="#666666"
     borderopacity="1"
     objecttolerance="10"
     gridtolerance="10"
     guidetolerance="10"
     inkscape:pageopacity="0"
     inkscape:pageshadow="2"
     inkscape:window-width="1294"
     inkscape:window-height="704"
     id="namedview6"
     showgrid="false"
     inkscape:zoom="20.972656"
     inkscape:cx="13.168188"
     inkscape:cy="12"
     inkscape:window-x="72"
     inkscape:window-y="27"
     inkscape:window-maximized="1"
     inkscape:current-layer="svg4" />
  <path
     d="M12,5.5A3.5,3.5 0 0,1 15.5,9A3.5,3.5 0 0,1 12,12.5A3.5,3.5 0 0,1 8.5,9A3.5,3.5 0 0,1 12,5.5M5,8C5.56,8 6.08,8.15 6.53,8.42C6.38,9.85 6.8,11.27 7.66,12.38C7.16,13.34 6.16,14 5,14A3,3 0 0,1 2,11A3,3 0 0,1 5,8M19,8A3,3 0 0,1 22,11A3,3 0 0,1 19,14C17.84,14 16.84,13.34 16.34,12.38C17.2,11.27 17.62,9.85 17.47,8.42C17.92,8.15 18.44,8 19,8M5.5,18.25C5.5,16.18 8.41,14.5 12,14.5C15.59,14.5 18.5,16.18 18.5,18.25V20H5.5V18.25M0,20V18.5C0,17.11 1.89,15.94 4.45,15.6C3.86,16.28 3.5,17.22 3.5,18.25V20H0M24,20H20.5V18.25C20.5,17.22 20.14,16.28 19.55,15.6C22.11,15.94 24,17.11 24,18.5V20Z"
     id="path2" />
  <path
     style="fill:#ffffff;stroke-width:0.04768113"
     d="M 4.3042652,13.89502 C 3.9266463,13.798298 3.703062,13.696503 3.3400726,13.456036 2.4814944,12.887258 1.9644176,11.848646 2.0323832,10.82938 2.064488,10.347912 2.2602357,9.7520394 2.5098178,9.376028 2.8967245,8.7931284 3.5959002,8.2907988 4.2625134,8.1167867 4.8776853,7.9562028 5.7133062,8.0376274 6.2521029,8.3106563 l 0.2327806,0.1179589 0.026561,0.7533959 C 6.552311,10.341183 6.8105229,11.163746 7.417827,12.069395 l 0.2139166,0.319006 -0.1387049,0.218714 c -0.3415276,0.538533 -0.9053014,0.981674 -1.5291464,1.20195 -0.4299687,0.151819 -1.2389109,0.193716 -1.6596271,0.08596 z"
     id="path12"
     inkscape:connector-curvature="0" />
  <path
     style="fill:#ffffff;stroke-width:0.04768113"
     d="M 11.428817,12.435853 C 10.69985,12.305523 10.004529,11.925944 9.4870239,11.37582 9.1044506,10.969132 8.8867774,10.621926 8.7278076,10.164808 7.9635274,7.9671212 9.4896998,5.6736785 11.806281,5.538658 c 1.083477,-0.06315 2.188739,0.4167982 2.864865,1.2440368 1.038534,1.2706434 1.062025,3.1021506 0.05587,4.3558462 -0.471844,0.58793 -1.162804,1.046074 -1.84968,1.226439 -0.359355,0.09436 -1.111343,0.131155 -1.448516,0.07087 z"
     id="path14"
     inkscape:connector-curvature="0" />
  <path
     style="fill:#ffffff;stroke-width:0.04768113"
     d="m 18.289141,13.888191 c -0.613621,-0.16378 -1.251198,-0.573315 -1.601868,-1.028927 -0.342584,-0.445107 -0.34046,-0.426522 -0.09155,-0.800942 0.60297,-0.906997 0.956646,-2.1389906 0.923692,-3.217586 l -0.01305,-0.427135 0.284104,-0.1266291 c 0.423289,-0.1886656 0.757654,-0.2548539 1.261567,-0.2497298 1.33645,0.01359 2.529659,0.9641784 2.834684,2.2582949 0.09309,0.394944 0.09384,1.043214 0.0016,1.405974 -0.136467,0.536859 -0.385792,0.965704 -0.805401,1.385313 -0.419608,0.419608 -0.848454,0.668933 -1.385312,0.8054 -0.355698,0.09042 -1.062208,0.08839 -1.408496,-0.004 z"
     id="path16"
     inkscape:connector-curvature="0" />
  <path
     style="fill:#ffffff;stroke-width:0.04768113"
     d="m 20.518191,18.768337 c -0.01903,-1.018374 -0.03762,-1.259757 -0.120606,-1.56601 -0.124392,-0.45903 -0.336801,-0.92837 -0.584141,-1.290723 l -0.193458,-0.283416 0.180918,0.03128 c 1.258202,0.21754 2.30102,0.598133 3.065626,1.118848 0.37487,0.255295 0.793453,0.714354 0.943659,1.034909 0.12469,0.266103 0.129676,0.30829 0.143866,1.217358 l 0.0147,0.941702 h -1.714036 -1.714036 z"
     id="path18"
     inkscape:connector-curvature="0" />
  <path
     style="fill:#ffffff;stroke-width:0.04768113"
     d="m 5.5219257,18.88754 c 0.018185,-0.967657 0.031689,-1.115627 0.1251033,-1.370833 0.501823,-1.370967 2.266862,-2.462198 4.631682,-2.863527 0.714298,-0.121222 2.273185,-0.145903 3.041147,-0.04815 1.923053,0.244785 3.438071,0.901632 4.373757,1.896272 0.392607,0.417344 0.659804,0.894821 0.738627,1.319919 0.02619,0.141259 0.04762,0.683036 0.04762,1.203949 v 0.947114 H 11.990703 5.5015405 Z"
     id="path20"
     inkscape:connector-curvature="0" />
  <path
     style="fill:#ffffff;stroke-width:0.04768113"
     d="m 0.03560893,19.030583 c 0.01519928,-0.923475 0.01812343,-0.94705 0.15107399,-1.217959 0.45267348,-0.922401 1.81041828,-1.711679 3.55062018,-2.06403 0.3258679,-0.06598 0.5991065,-0.113345 0.6071968,-0.105255 0.00809,0.0081 -0.079905,0.153973 -0.195545,0.324184 -0.2341751,0.344683 -0.4706975,0.909387 -0.5784777,1.381134 -0.047201,0.206595 -0.07961,0.699491 -0.096482,1.467361 l -0.025406,1.156267 H 1.7343496 0.02010964 Z"
     id="path22"
     inkscape:connector-curvature="0" />
</svg>
