<?xml version="1.0" encoding="UTF-8" standalone="no"?>
<svg
   xmlns:dc="http://purl.org/dc/elements/1.1/"
   xmlns:cc="http://creativecommons.org/ns#"
   xmlns:rdf="http://www.w3.org/1999/02/22-rdf-syntax-ns#"
   xmlns:svg="http://www.w3.org/2000/svg"
   xmlns="http://www.w3.org/2000/svg"
   xmlns:sodipodi="http://sodipodi.sourceforge.net/DTD/sodipodi-0.dtd"
   xmlns:inkscape="http://www.inkscape.org/namespaces/inkscape"
   version="1.1"
   width="24"
   height="24"
   viewBox="0 0 24 24"
   id="svg4"
   sodipodi:docname="android-messages.svg"
   inkscape:version="0.92.5 (2060ec1f9f, 2020-04-08)">
  <metadata
     id="metadata10">
    <rdf:RDF>
      <cc:Work
         rdf:about="">
        <dc:format>image/svg+xml</dc:format>
        <dc:type
           rdf:resource="http://purl.org/dc/dcmitype/StillImage" />
        <dc:title></dc:title>
      </cc:Work>
    </rdf:RDF>
  </metadata>
  <defs
     id="defs8" />
  <sodipodi:namedview
     pagecolor="#ffffff"
     bordercolor="#666666"
     borderopacity="1"
     objecttolerance="10"
     gridtolerance="10"
     guidetolerance="10"
     inkscape:pageopacity="0"
     inkscape:pageshadow="2"
     inkscape:window-width="1294"
     inkscape:window-height="704"
     id="namedview6"
     showgrid="false"
     inkscape:zoom="20.972656"
     inkscape:cx="13.168188"
     inkscape:cy="12"
     inkscape:window-x="72"
     inkscape:window-y="27"
     inkscape:window-maximized="1"
     inkscape:current-layer="svg4" />
  <path
     d="M20,20H7A2,2 0 0,1 5,18V8.94L2.23,5.64C2.09,5.47 2,5.24 2,5A1,1 0 0,1 3,4H20A2,2 0 0,1 22,6V18A2,2 0 0,1 20,20M8.5,7A0.5,0.5 0 0,0 8,7.5V8.5A0.5,0.5 0 0,0 8.5,9H18.5A0.5,0.5 0 0,0 19,8.5V7.5A0.5,0.5 0 0,0 18.5,7H8.5M8.5,11A0.5,0.5 0 0,0 8,11.5V12.5A0.5,0.5 0 0,0 8.5,13H18.5A0.5,0.5 0 0,0 19,12.5V11.5A0.5,0.5 0 0,0 18.5,11H8.5M8.5,15A0.5,0.5 0 0,0 8,15.5V16.5A0.5,0.5 0 0,0 8.5,17H13.5A0.5,0.5 0 0,0 14,16.5V15.5A0.5,0.5 0 0,0 13.5,15H8.5Z"
     id="path2" />
  <path
     style="fill:#ffffff;stroke-width:0.04768113"
     d="M 6.5331638,19.92084 C 6.0578354,19.807961 5.5203036,19.400867 5.2915002,18.98048 5.0125707,18.467995 5.0194822,18.605805 5.0194822,13.556665 V 8.9252831 L 3.5956216,7.228582 C 2.7535669,6.2251726 2.1398504,5.4521285 2.0936659,5.3367021 1.9828653,5.0597842 1.9963217,4.8647546 2.146694,4.5681412 2.2451672,4.3739002 2.336247,4.2738215 2.5124734,4.166222 L 2.7471298,4.0229465 11.285802,4.0091172 c 5.716585,-0.00926 8.664743,0.00257 8.920121,0.035777 0.923205,0.1200597 1.605309,0.7774314 1.744802,1.6815397 0.0285,0.1847334 0.04104,2.6603993 0.03278,6.4738271 l -0.01337,6.174706 -0.102297,0.27025 c -0.210968,0.557336 -0.615301,0.976886 -1.149233,1.192482 l -0.274266,0.110746 -6.866084,0.0075 c -3.8843434,0.0042 -6.9438165,-0.01101 -7.0450812,-0.03506 z m 7.1849992,-2.951277 c 0.245327,-0.09327 0.312678,-0.296574 0.312875,-0.944423 1.91e-4,-0.700972 -0.05687,-0.885264 -0.306502,-0.989568 -0.244531,-0.102172 -5.1931682,-0.104029 -5.4372608,-0.002 -0.275296,0.115027 -0.3209111,0.271112 -0.303169,1.037383 l 0.015447,0.667115 0.1557161,0.139013 0.1557156,0.139013 h 2.6424471 c 1.601204,0 2.690632,-0.01832 2.764731,-0.04649 z m 5.097429,-4.056643 c 0.185577,-0.145975 0.234879,-0.38344 0.215472,-1.037843 l -0.01717,-0.578933 -0.155871,-0.155876 -0.15587,-0.155876 -5.080813,-0.01277 c -3.493377,-0.0088 -5.1399325,0.0032 -5.2700333,0.03819 -0.1302186,0.03506 -0.2188202,0.09852 -0.2841495,0.203491 -0.085239,0.13697 -0.093535,0.222312 -0.081267,0.836027 l 0.013662,0.683487 0.1557161,0.139013 0.1557156,0.139013 h 5.1900611 c 5.163056,0 5.190709,-5.1e-4 5.314546,-0.09792 z m 0,-4.0052155 c 0.185918,-0.1462433 0.234875,-0.38323 0.215404,-1.0427259 L 19.01376,7.2811613 18.861889,7.1454645 C 18.767155,7.0608198 18.632641,6.9986494 18.504348,6.9802151 18.391229,6.9639611 16.056472,6.9570781 13.315999,6.9649196 7.8573531,6.9805387 8.2076091,6.9606936 8.0451028,7.2635598 7.981469,7.3821558 7.9703383,7.5274836 7.9834949,8.0679531 l 0.016058,0.659646 0.1557161,0.1390129 0.1557156,0.1390129 h 5.1900614 c 5.163056,0 5.190709,-5.102e-4 5.314546,-0.09792 z"
     id="path12"
     inkscape:connector-curvature="0" />
</svg>
