<?xml version="1.0" encoding="UTF-8" standalone="no"?>
<svg
   xmlns:dc="http://purl.org/dc/elements/1.1/"
   xmlns:cc="http://creativecommons.org/ns#"
   xmlns:rdf="http://www.w3.org/1999/02/22-rdf-syntax-ns#"
   xmlns:svg="http://www.w3.org/2000/svg"
   xmlns="http://www.w3.org/2000/svg"
   xmlns:sodipodi="http://sodipodi.sourceforge.net/DTD/sodipodi-0.dtd"
   xmlns:inkscape="http://www.inkscape.org/namespaces/inkscape"
   version="1.1"
   width="24"
   height="24"
   viewBox="0 0 24 24"
   id="svg4"
   sodipodi:docname="cog.svg"
   inkscape:version="0.92.5 (2060ec1f9f, 2020-04-08)">
  <metadata
     id="metadata10">
    <rdf:RDF>
      <cc:Work
         rdf:about="">
        <dc:format>image/svg+xml</dc:format>
        <dc:type
           rdf:resource="http://purl.org/dc/dcmitype/StillImage" />
      </cc:Work>
    </rdf:RDF>
  </metadata>
  <defs
     id="defs8" />
  <sodipodi:namedview
     pagecolor="#ffffff"
     bordercolor="#666666"
     borderopacity="1"
     objecttolerance="10"
     gridtolerance="10"
     guidetolerance="10"
     inkscape:pageopacity="0"
     inkscape:pageshadow="2"
     inkscape:window-width="1294"
     inkscape:window-height="704"
     id="namedview6"
     showgrid="false"
     inkscape:zoom="20.972656"
     inkscape:cx="13.168188"
     inkscape:cy="12"
     inkscape:window-x="72"
     inkscape:window-y="27"
     inkscape:window-maximized="1"
     inkscape:current-layer="svg4" />
  <path
     d="M12,15.5A3.5,3.5 0 0,1 8.5,12A3.5,3.5 0 0,1 12,8.5A3.5,3.5 0 0,1 15.5,12A3.5,3.5 0 0,1 12,15.5M19.43,12.97C19.47,12.65 19.5,12.33 19.5,12C19.5,11.67 19.47,11.34 19.43,11L21.54,9.37C21.73,9.22 21.78,8.95 21.66,8.73L19.66,5.27C19.54,5.05 19.27,4.96 19.05,5.05L16.56,6.05C16.04,5.66 15.5,5.32 14.87,5.07L14.5,2.42C14.46,2.18 14.25,2 14,2H10C9.75,2 9.54,2.18 9.5,2.42L9.13,5.07C8.5,5.32 7.96,5.66 7.44,6.05L4.95,5.05C4.73,4.96 4.46,5.05 4.34,5.27L2.34,8.73C2.21,8.95 2.27,9.22 2.46,9.37L4.57,11C4.53,11.34 4.5,11.67 4.5,12C4.5,12.33 4.53,12.65 4.57,12.97L2.46,14.63C2.27,14.78 2.21,15.05 2.34,15.27L4.34,18.73C4.46,18.95 4.73,19.03 4.95,18.95L7.44,17.94C7.96,18.34 8.5,18.68 9.13,18.93L9.5,21.58C9.54,21.82 9.75,22 10,22H14C14.25,22 14.46,21.82 14.5,21.58L14.87,18.93C15.5,18.67 16.04,18.34 16.56,17.94L19.05,18.95C19.27,19.03 19.54,18.95 19.66,18.73L21.66,15.27C21.78,15.05 21.73,14.78 21.54,14.63L19.43,12.97Z"
     id="path2" />
  <path
     style="fill:#ffffff;stroke-width:0.04768113"
     d="M 9.6883834,21.842299 9.5399854,21.709706 9.3459404,20.315084 9.1518953,18.920462 8.7664487,18.7392 C 8.5544531,18.639505 8.1689035,18.413792 7.9096721,18.237614 L 7.4383422,17.917291 6.1299256,18.447129 C 4.7340891,19.012367 4.6584822,19.028882 4.4555437,18.812863 4.2585186,18.60314 2.3016106,15.158647 2.3033473,15.02463 c 9.293e-4,-0.07171 0.02775,-0.176279 0.059601,-0.232371 0.031852,-0.05609 0.5384482,-0.479398 1.1257705,-0.94068 L 4.5565779,13.012885 V 11.985763 10.958642 L 3.5602409,10.192895 C 2.4087783,9.3079242 2.3016577,9.2061012 2.3016577,8.996554 c 0,-0.1091173 0.2839162,-0.6442016 1.030562,-1.9422537 0.5668092,-0.9854045 1.0829619,-1.8399215 1.1470061,-1.8989269 0.065866,-0.060684 0.177525,-0.1072825 0.2570683,-0.1072825 0.077343,0 0.7033487,0.2252933 1.3911228,0.5006519 C 6.815191,5.8241013 7.399773,6.0489548 7.4264878,6.0484172 7.453203,6.0478793 7.6681691,5.9172279 7.9041907,5.7580802 8.1402123,5.5989325 8.5175317,5.3804942 8.7426777,5.2726619 L 9.1520346,5.0766031 9.3298027,3.7868767 C 9.4275753,3.0775272 9.528747,2.4291741 9.5546297,2.3460921 9.6505251,2.0382696 9.6023047,2.0441795 12.018011,2.0441795 h 2.186088 l 0.128838,0.1344777 c 0.122237,0.1275873 0.138722,0.2050992 0.321747,1.5128017 0.106101,0.7580782 0.19697,1.3808543 0.201931,1.3839469 0.005,0.00309 0.211154,0.1066059 0.458205,0.2300295 0.247052,0.1234235 0.618887,0.3413058 0.826302,0.4841829 0.207414,0.1428771 0.404616,0.2597765 0.438227,0.2597765 0.03361,0 0.61659,-0.2252639 1.295509,-0.5005865 0.678919,-0.2753225 1.298768,-0.5001387 1.377442,-0.4995916 0.07867,5.469e-4 0.189776,0.038067 0.246895,0.083376 0.124472,0.09874 2.156106,3.5979922 2.191157,3.7740124 0.05049,0.2535554 -0.0524,0.3611955 -1.159748,1.213314 l -1.087579,0.836903 0.0033,1.029199 0.0033,1.029198 0.974148,0.763068 c 1.117342,0.875232 1.284079,1.03429 1.284079,1.224944 0,0.147811 -1.972179,3.617372 -2.173436,3.823622 -0.191893,0.196655 -0.360861,0.157412 -1.716992,-0.398773 l -1.244126,-0.510249 -0.455673,0.304659 c -0.250621,0.167562 -0.640215,0.394816 -0.865765,0.505009 -0.22555,0.110193 -0.410188,0.215419 -0.410306,0.233838 -0.0012,0.191319 -0.385257,2.693573 -0.424708,2.767288 -0.133607,0.249647 -0.100374,0.246268 -2.421962,0.246268 H 9.8367809 Z M 12.92358,15.391605 c 0.579465,-0.148202 1.071076,-0.43696 1.536766,-0.90265 0.693176,-0.693175 0.990866,-1.35878 1.03648,-2.317462 0.03186,-0.66958 -0.05907,-1.119692 -0.34576,-1.711594 -0.441924,-0.9123962 -1.17358,-1.5339464 -2.168835,-1.84245 -0.517869,-0.1605267 -1.4422,-0.160911 -1.954926,-8.154e-4 -1.5603909,0.4872297 -2.5286321,1.7859144 -2.5263954,3.3886074 8.821e-4,0.633352 0.086206,1.002097 0.364722,1.576253 0.1866412,0.384758 0.2832489,0.515358 0.653921,0.884012 0.3288034,0.327012 0.5280014,0.48048 0.8163754,0.628959 0.848547,0.436904 1.671629,0.531417 2.587652,0.297138 z"
     id="path12"
     inkscape:connector-curvature="0" />
</svg>
