<?xml version="1.0" encoding="UTF-8" standalone="no"?>
<svg
   xmlns:dc="http://purl.org/dc/elements/1.1/"
   xmlns:cc="http://creativecommons.org/ns#"
   xmlns:rdf="http://www.w3.org/1999/02/22-rdf-syntax-ns#"
   xmlns:svg="http://www.w3.org/2000/svg"
   xmlns="http://www.w3.org/2000/svg"
   xmlns:sodipodi="http://sodipodi.sourceforge.net/DTD/sodipodi-0.dtd"
   xmlns:inkscape="http://www.inkscape.org/namespaces/inkscape"
   version="1.1"
   width="24"
   height="24"
   viewBox="0 0 24 24"
   id="svg4"
   sodipodi:docname="file-multiple.svg"
   inkscape:version="0.92.5 (2060ec1f9f, 2020-04-08)">
  <metadata
     id="metadata10">
    <rdf:RDF>
      <cc:Work
         rdf:about="">
        <dc:format>image/svg+xml</dc:format>
        <dc:type
           rdf:resource="http://purl.org/dc/dcmitype/StillImage" />
      </cc:Work>
    </rdf:RDF>
  </metadata>
  <defs
     id="defs8" />
  <sodipodi:namedview
     pagecolor="#ffffff"
     bordercolor="#666666"
     borderopacity="1"
     objecttolerance="10"
     gridtolerance="10"
     guidetolerance="10"
     inkscape:pageopacity="0"
     inkscape:pageshadow="2"
     inkscape:window-width="1294"
     inkscape:window-height="704"
     id="namedview6"
     showgrid="false"
     inkscape:zoom="20.972656"
     inkscape:cx="13.168188"
     inkscape:cy="12"
     inkscape:window-x="72"
     inkscape:window-y="27"
     inkscape:window-maximized="1"
     inkscape:current-layer="svg4" />
  <path
     d="M15,7H20.5L15,1.5V7M8,0H16L22,6V18A2,2 0 0,1 20,20H8C6.89,20 6,19.1 6,18V2A2,2 0 0,1 8,0M4,4V22H20V24H4A2,2 0 0,1 2,22V4H4Z"
     id="path2" />
  <path
     style="fill:#ffffff;stroke-width:0.04768113"
     d="M 7.5344676,19.920865 C 7.0530896,19.806484 6.5214308,19.400543 6.2856589,18.967352 6.0077836,18.456803 6.0218665,18.936351 6.0225175,10.006929 6.0229091,4.6357676 6.0398432,1.7093824 6.0713229,1.5728353 6.200701,1.0116416 6.6641823,0.4453746 7.1994053,0.19457931 L 7.4750605,0.06541255 11.741378,0.0524895 l 4.266318,-0.01292306 2.99387,2.99299386 2.993869,2.9929938 -0.01265,6.1747069 -0.01266,6.174706 -0.102297,0.27025 c -0.210968,0.557336 -0.615301,0.976886 -1.149233,1.192482 l -0.274266,0.110746 -6.365432,0.0075 c -3.594056,0.0042 -6.443363,-0.01104 -6.5444294,-0.03506 z M 20.51585,6.990943 c 0,-0.00664 -1.244477,-1.2564135 -2.765505,-2.7772719 L 14.984839,1.4484737 v 2.7772718 2.7772718 h 2.765506 c 1.521028,0 2.765505,-0.00543 2.765505,-0.012074 z"
     id="path12"
     inkscape:connector-curvature="0" />
  <path
     style="fill:#ffffff;stroke-width:0.04768113"
     d="M 3.5435568,23.925734 C 2.9089403,23.776167 2.3461938,23.250646 2.1284279,22.604218 2.0301695,22.312543 2.0298752,22.284326 2.0298752,13.155388 V 3.999106 h 0.9774632 0.9774632 v 9.011734 9.011734 h 7.9865894 7.98659 V 23.000037 23.9775 L 11.840268,23.9727 C 7.319334,23.97 3.6432451,23.94922 3.5435568,23.92572 Z"
     id="path14"
     inkscape:connector-curvature="0" />
</svg>
