<?xml version="1.0" encoding="UTF-8" standalone="no"?>
<svg
   xmlns:dc="http://purl.org/dc/elements/1.1/"
   xmlns:cc="http://creativecommons.org/ns#"
   xmlns:rdf="http://www.w3.org/1999/02/22-rdf-syntax-ns#"
   xmlns:svg="http://www.w3.org/2000/svg"
   xmlns="http://www.w3.org/2000/svg"
   xmlns:sodipodi="http://sodipodi.sourceforge.net/DTD/sodipodi-0.dtd"
   xmlns:inkscape="http://www.inkscape.org/namespaces/inkscape"
   version="1.1"
   width="24"
   height="24"
   viewBox="0 0 24 24"
   id="svg4"
   sodipodi:docname="help-box.svg"
   inkscape:version="0.92.5 (2060ec1f9f, 2020-04-08)">
  <metadata
     id="metadata10">
    <rdf:RDF>
      <cc:Work
         rdf:about="">
        <dc:format>image/svg+xml</dc:format>
        <dc:type
           rdf:resource="http://purl.org/dc/dcmitype/StillImage" />
        <dc:title></dc:title>
      </cc:Work>
    </rdf:RDF>
  </metadata>
  <defs
     id="defs8" />
  <sodipodi:namedview
     pagecolor="#ffffff"
     bordercolor="#666666"
     borderopacity="1"
     objecttolerance="10"
     gridtolerance="10"
     guidetolerance="10"
     inkscape:pageopacity="0"
     inkscape:pageshadow="2"
     inkscape:window-width="1294"
     inkscape:window-height="704"
     id="namedview6"
     showgrid="false"
     inkscape:zoom="20.972656"
     inkscape:cx="13.168188"
     inkscape:cy="12"
     inkscape:window-x="72"
     inkscape:window-y="27"
     inkscape:window-maximized="1"
     inkscape:current-layer="svg4" />
  <path
     d="M11,18H13V16H11V18M12,6A4,4 0 0,0 8,10H10A2,2 0 0,1 12,8A2,2 0 0,1 14,10C14,12 11,11.75 11,15H13C13,12.75 16,12.5 16,10A4,4 0 0,0 12,6M5,3H19A2,2 0 0,1 21,5V19A2,2 0 0,1 19,21H5A2,2 0 0,1 3,19V5A2,2 0 0,1 5,3Z"
     id="path2" />
  <path
     style="fill:#ffffff;stroke-width:0.04768113"
     d="M 4.5244443,20.920854 C 4.0429955,20.807047 3.4782158,20.361594 3.2512116,19.916629 3.008712,19.441291 3.0168747,19.716155 3.0168747,12.025706 c 0,-5.1259071 0.015262,-7.23552 0.053654,-7.4163187 C 3.1956923,4.0199503 3.6454966,3.4562531 4.1968566,3.1978668 L 4.4711492,3.0693239 h 7.5336188 7.533619 l 0.274292,0.1285429 c 0.566782,0.2656132 1.020376,0.8550245 1.133191,1.4724955 0.03199,0.1751133 0.04421,2.7322868 0.03577,7.4859377 l -0.01282,7.219971 -0.104492,0.276495 c -0.206351,0.546022 -0.61917,0.969875 -1.159058,1.190039 l -0.262246,0.106944 -7.366735,0.0074 c -4.3332901,0.0044 -7.4429593,-0.01059 -7.5518457,-0.03633 z M 13.029912,16.992215 V 15.96707 h -1.025144 -1.025144 v 1.025145 1.025144 h 1.025144 1.025144 z m 0.0158,-2.259928 c 0.06941,-0.664112 0.390136,-1.14659 1.320486,-1.98647 0.796859,-0.719372 1.096773,-1.046314 1.309636,-1.427657 0.253239,-0.453679 0.331219,-0.782395 0.328025,-1.382753 C 15.994572,8.1891022 14.869122,6.6945019 13.149115,6.1442987 12.69188,5.9980365 11.628573,5.9573879 11.156951,6.0681414 9.9234285,6.3578165 8.9500335,7.1171664 8.3881881,8.2280662 8.2128755,8.5747005 8.0337318,9.2215107 7.9951658,9.6470978 l -0.032607,0.3598312 h 1.031721 1.0317212 V 9.8681332 c 0,-0.2210135 0.167039,-0.6980461 0.337384,-0.9635051 0.393091,-0.61258 1.200785,-0.970897 1.923417,-0.8532853 0.870929,0.141747 1.540266,0.8232043 1.663223,1.6933396 0.10869,0.7691746 -0.136165,1.2081566 -1.108087,1.9865976 -0.985972,0.789694 -1.231856,1.055458 -1.527145,1.650618 -0.175051,0.352817 -0.275343,0.745503 -0.316233,1.23818 l -0.03265,0.39337 h 1.025207 1.025208 z"
     id="path12"
     inkscape:connector-curvature="0" />
</svg>
