<?xml version="1.0" encoding="UTF-8" standalone="no"?>
<svg
   xmlns:dc="http://purl.org/dc/elements/1.1/"
   xmlns:cc="http://creativecommons.org/ns#"
   xmlns:rdf="http://www.w3.org/1999/02/22-rdf-syntax-ns#"
   xmlns:svg="http://www.w3.org/2000/svg"
   xmlns="http://www.w3.org/2000/svg"
   xmlns:sodipodi="http://sodipodi.sourceforge.net/DTD/sodipodi-0.dtd"
   xmlns:inkscape="http://www.inkscape.org/namespaces/inkscape"
   version="1.1"
   width="24"
   height="24"
   viewBox="0 0 24 24"
   id="svg4"
   sodipodi:docname="history.svg"
   inkscape:version="0.92.5 (2060ec1f9f, 2020-04-08)">
  <metadata
     id="metadata10">
    <rdf:RDF>
      <cc:Work
         rdf:about="">
        <dc:format>image/svg+xml</dc:format>
        <dc:type
           rdf:resource="http://purl.org/dc/dcmitype/StillImage" />
      </cc:Work>
    </rdf:RDF>
  </metadata>
  <defs
     id="defs8" />
  <sodipodi:namedview
     pagecolor="#ffffff"
     bordercolor="#666666"
     borderopacity="1"
     objecttolerance="10"
     gridtolerance="10"
     guidetolerance="10"
     inkscape:pageopacity="0"
     inkscape:pageshadow="2"
     inkscape:window-width="1294"
     inkscape:window-height="704"
     id="namedview6"
     showgrid="false"
     inkscape:zoom="20.972656"
     inkscape:cx="13.168188"
     inkscape:cy="12"
     inkscape:window-x="72"
     inkscape:window-y="27"
     inkscape:window-maximized="1"
     inkscape:current-layer="svg4" />
  <path
     d="M13.5,8H12V13L16.28,15.54L17,14.33L13.5,12.25V8M13,3A9,9 0 0,0 4,12H1L4.96,16.03L9,12H6A7,7 0 0,1 13,5A7,7 0 0,1 20,12A7,7 0 0,1 13,19C11.07,19 9.32,18.21 8.06,16.94L6.64,18.36C8.27,20 10.5,21 13,21A9,9 0 0,0 22,12A9,9 0 0,0 13,3"
     id="path2" />
  <path
     style="fill:#ffffff;stroke-width:0.04768113"
     d="M 11.957087,20.918019 C 10.640561,20.769276 9.2249981,20.252902 8.0949153,19.509163 7.6894206,19.242296 6.8777762,18.593474 6.7365279,18.423281 c -0.057344,-0.0691 0.014275,-0.157394 0.6191796,-0.76338 l 0.684024,-0.685247 0.2898383,0.253477 c 0.9545296,0.83478 2.0616912,1.39295 3.2847652,1.655997 0.651032,0.140019 2.031132,0.152245 2.671785,0.02367 2.079552,-0.417354 3.887435,-1.727773 4.866885,-3.527696 C 20.61819,12.68755 20.18616,9.3718255 18.084112,7.176631 16.964675,6.0075882 15.646377,5.3161876 14.055483,5.0637572 13.691604,5.0060198 13.381936,4.9945148 12.744252,5.0150418 11.595656,5.052015 10.978782,5.1987703 9.9824125,5.6720881 7.6676074,6.7717188 6.1898123,8.9576081 5.9922937,11.574096 l -0.032871,0.43544 H 7.4562274 8.9530331 L 6.9588307,14.000224 4.9646282,15.990911 3.0168625,14.012144 1.0690968,12.033377 2.5340894,12.02079 3.999082,12.008204 4.0564444,11.329414 C 4.212116,9.4872983 4.8369599,7.8784057 5.9496381,6.4546843 6.2731703,6.0407106 6.9831095,5.3242134 7.4069061,4.9839552 8.4863468,4.1172929 9.893943,3.4678686 11.318162,3.1794143 c 0.481835,-0.097588 0.676224,-0.1099093 1.71175,-0.1084954 1.282326,0.00175 1.622223,0.048349 2.646303,0.3627941 2.313947,0.7104999 4.321002,2.4392533 5.391164,4.643616 1.085727,2.236423 1.196302,4.904182 0.297374,7.174524 -1.06911,2.700157 -3.343403,4.722322 -6.11087,5.433425 -1.01352,0.260424 -2.267951,0.348982 -3.296796,0.232741 z"
     id="path12"
     inkscape:connector-curvature="0" />
  <path
     style="fill:#ffffff;stroke-width:0.04768113"
     d="m 14.128963,14.24065 -2.08605,-1.241799 V 10.501586 8.0043211 h 0.715217 0.715217 l 0.0012,2.1337309 0.0012,2.13373 1.695056,1.001304 c 0.932281,0.550717 1.718698,1.01565 1.747595,1.033185 0.0534,0.0324 -0.602555,1.187924 -0.669897,1.180084 -0.01844,-0.0021 -0.972255,-0.562714 -2.119582,-1.245705 z"
     id="path14"
     inkscape:connector-curvature="0" />
</svg>
