<?xml version="1.0" encoding="UTF-8" standalone="no"?>
<svg
   xmlns:dc="http://purl.org/dc/elements/1.1/"
   xmlns:cc="http://creativecommons.org/ns#"
   xmlns:rdf="http://www.w3.org/1999/02/22-rdf-syntax-ns#"
   xmlns:svg="http://www.w3.org/2000/svg"
   xmlns="http://www.w3.org/2000/svg"
   xmlns:sodipodi="http://sodipodi.sourceforge.net/DTD/sodipodi-0.dtd"
   xmlns:inkscape="http://www.inkscape.org/namespaces/inkscape"
   version="1.1"
   width="24"
   height="24"
   viewBox="0 0 24 24"
   id="svg4"
   sodipodi:docname="view-dashboard.svg"
   inkscape:version="0.92.5 (2060ec1f9f, 2020-04-08)">
  <metadata
     id="metadata10">
    <rdf:RDF>
      <cc:Work
         rdf:about="">
        <dc:format>image/svg+xml</dc:format>
        <dc:type
           rdf:resource="http://purl.org/dc/dcmitype/StillImage" />
        <dc:title />
      </cc:Work>
    </rdf:RDF>
  </metadata>
  <defs
     id="defs8" />
  <sodipodi:namedview
     pagecolor="#ffffff"
     bordercolor="#666666"
     borderopacity="1"
     objecttolerance="10"
     gridtolerance="10"
     guidetolerance="10"
     inkscape:pageopacity="0"
     inkscape:pageshadow="2"
     inkscape:window-width="1294"
     inkscape:window-height="704"
     id="namedview6"
     showgrid="false"
     inkscape:zoom="43.375266"
     inkscape:cx="9.8514674"
     inkscape:cy="11.809275"
     inkscape:window-x="72"
     inkscape:window-y="27"
     inkscape:window-maximized="1"
     inkscape:current-layer="svg4" />
  <path
     d="M13,3V9H21V3M13,21H21V11H13M3,21H11V15H3M3,13H11V3H3V13Z"
     id="path2" />
  <path
     style="fill:#ececec;stroke-width:0.04768113"
     d="M 3.0168747,8.0043211 V 3.0454833 H 6.9982492 10.979624 V 8.0043211 12.963159 H 6.9982492 3.0168747 Z"
     id="path3715"
     inkscape:connector-curvature="0" />
  <path
     style="fill:#ececec;stroke-width:0.04768113"
     d="M 13.044217,6.0017135 V 3.0454833 h 3.957534 3.957534 v 2.9562302 2.9562303 h -3.957534 -3.957534 z"
     id="path3717"
     inkscape:connector-curvature="0" />
  <path
     style="fill:#ececec;stroke-width:0.04768113"
     d="m 13.044217,15.990911 v -4.982679 h 3.957534 3.957534 v 4.982679 4.982678 h -3.957534 -3.957534 z"
     id="path3719"
     inkscape:connector-curvature="0" />
  <path
     style="fill:#ececec;stroke-width:0.04768113"
     d="m 3.031179,17.993518 v -2.98007 h 3.9813745 3.9813745 v 2.98007 2.980071 H 7.0125535 3.031179 Z"
     id="path3721"
     inkscape:connector-curvature="0" />
  <path
     style="fill:#ffffff;stroke-width:0.02305461"
     d="M 3.0296072,8.0109231 V 3.0657084 H 6.9950008 10.960394 V 8.0109231 12.956138 H 6.9950008 3.0296072 Z"
     id="path11"
     inkscape:connector-curvature="0" />
  <path
     style="fill:#ffffff;stroke-width:0.02305461"
     d="M 13.065281,6.0051717 V 3.0657084 h 3.942339 3.942338 V 6.0051717 8.9446349 H 17.00762 13.065281 Z"
     id="path13"
     inkscape:connector-curvature="0" />
  <path
     style="fill:#ffffff;stroke-width:0.02305461"
     d="M 13.065281,15.987819 V 11.01955 h 3.942339 3.942338 v 4.968269 4.96827 H 17.00762 13.065281 Z"
     id="path15"
     inkscape:connector-curvature="0" />
  <path
     style="fill:#ffffff;stroke-width:0.02305461"
     d="m 3.0365236,17.993571 v -2.962518 h 3.9769209 3.9769205 v 2.962518 2.962518 H 7.0134445 3.0365236 Z"
     id="path17"
     inkscape:connector-curvature="0" />
</svg>
